<?xml version="1.0" standalone="no"?>
<!DOCTYPE svg PUBLIC "-//W3C//DTD SVG 20010904//EN"
 "http://www.w3.org/TR/2001/REC-SVG-20010904/DTD/svg10.dtd">
<svg version="1.0" xmlns="http://www.w3.org/2000/svg"
 width="976.000000pt" height="1072.000000pt" viewBox="0 0 976.000000 1072.000000"
 preserveAspectRatio="xMidYMid meet">

<g transform="translate(0.000000,1072.000000) scale(0.100000,-0.100000)"
fill="#000000" stroke="none">
<path d="M4000 10403 c-55 -6 -209 -40 -330 -73 -85 -23 -132 -30 -203 -30
-111 -1 -158 -10 -252 -54 -57 -27 -215 -137 -271 -190 -144 -137 -229 -205
-339 -273 -471 -290 -677 -511 -725 -772 -11 -62 -14 -67 -94 -145 -99 -98
-129 -151 -197 -358 -59 -177 -86 -236 -138 -298 -97 -116 -159 -230 -193
-355 -29 -108 -31 -350 -5 -473 l19 -83 -59 -65 c-125 -139 -173 -218 -235
-389 -130 -359 -173 -933 -103 -1370 17 -105 74 -327 99 -387 27 -62 21 -83
-57 -196 -123 -180 -149 -242 -168 -396 -12 -97 -9 -147 21 -326 10 -63 26
-164 36 -225 38 -241 187 -710 284 -891 51 -96 164 -246 238 -315 89 -85 190
-151 320 -209 l102 -46 4 -110 c5 -158 33 -251 130 -418 81 -142 260 -360 427
-521 110 -106 138 -128 262 -210 83 -54 95 -66 122 -120 79 -158 209 -293 405
-423 79 -52 169 -106 199 -119 143 -63 350 -123 428 -123 27 0 46 -9 81 -40
25 -22 75 -55 111 -73 61 -30 73 -32 161 -31 52 0 113 7 135 14 70 23 175 93
234 156 103 109 155 226 170 383 7 65 13 86 35 112 36 43 70 112 91 184 25 85
16 287 -18 410 -25 88 -25 90 -6 103 68 48 86 202 36 304 l-28 58 30 80 c62
160 59 284 -19 745 -23 137 -9 254 55 445 19 58 42 140 51 182 9 43 20 78 24
78 4 0 11 -17 14 -37 9 -48 50 -196 81 -288 13 -38 31 -111 39 -161 19 -106
12 -225 -24 -429 -43 -243 -37 -368 26 -561 l25 -77 -22 -45 c-27 -60 -44
-149 -35 -195 4 -20 23 -58 42 -83 l36 -47 -16 -49 c-29 -90 -38 -177 -33
-306 5 -151 21 -206 80 -287 39 -53 44 -68 50 -130 15 -156 71 -284 175 -396
52 -57 81 -78 160 -117 l95 -47 121 0 c141 0 184 14 263 88 46 42 53 45 147
61 55 9 124 26 155 37 31 11 89 31 129 44 100 34 149 60 288 153 173 117 309
261 400 426 32 59 44 70 116 113 151 90 267 198 487 453 49 57 111 144 111
155 0 4 11 15 23 26 31 24 117 174 158 274 31 75 33 88 35 218 1 77 6 143 10
147 5 4 42 20 82 34 91 32 118 47 212 109 185 124 343 337 451 607 54 135 125
371 145 480 9 47 26 141 40 210 41 218 57 374 51 505 -8 190 -49 296 -184 477
l-64 87 25 94 c14 52 32 110 40 129 21 50 45 158 62 278 20 146 29 515 16 680
-16 192 -67 476 -108 602 -64 195 -125 301 -250 441 -70 77 -82 117 -55 177
24 53 22 351 -2 440 -28 103 -92 226 -176 340 -95 128 -106 149 -164 322 -68
203 -104 268 -203 367 -47 46 -84 92 -84 103 0 28 -38 135 -71 201 -40 79 -92
147 -180 238 -94 97 -160 150 -279 223 -230 143 -301 195 -480 356 -128 116
-278 230 -340 258 -73 34 -158 51 -256 52 -56 0 -119 10 -205 31 -342 84 -504
89 -700 21 -185 -65 -317 -235 -327 -422 -3 -61 3 -104 31 -225 83 -353 89
-685 16 -929 -20 -67 -21 -85 -15 -291 6 -234 18 -329 68 -573 l32 -152 -22
-43 c-38 -77 -52 -131 -52 -205 0 -85 34 -173 92 -238 20 -21 45 -57 56 -79
l20 -41 -64 -52 c-74 -62 -111 -106 -125 -153 -15 -53 -22 -432 -10 -538 13
-107 50 -205 98 -261 18 -21 33 -43 33 -48 0 -6 -13 -35 -29 -64 -79 -143
-175 -460 -212 -698 -45 -283 -26 -572 46 -725 l27 -56 -27 -75 c-22 -65 -56
-235 -80 -406 -8 -59 -21 -62 -30 -5 -30 202 -61 353 -87 424 l-30 84 32 77
c49 117 59 158 66 272 14 220 -50 613 -137 848 -22 59 -65 158 -96 219 l-57
113 21 22 c32 35 80 127 97 187 13 44 16 108 16 325 0 325 -2 331 -119 437
-39 35 -71 70 -71 77 0 7 29 53 64 102 83 116 100 166 94 280 -4 72 -11 101
-39 160 l-33 72 18 91 c10 51 26 135 36 187 10 52 26 180 35 284 19 214 15
352 -16 468 -52 198 -53 203 -52 458 l0 245 37 140 c63 235 58 395 -15 506
-46 70 -136 155 -201 189 -100 53 -270 79 -418 63z m324 -182 c72 -35 131 -95
167 -169 19 -39 23 -63 23 -136 -1 -71 -4 -92 -17 -101 -10 -7 -17 -24 -17
-39 0 -15 -7 -43 -15 -63 -9 -20 -22 -95 -30 -166 -8 -71 -17 -132 -20 -136
-3 -3 -17 9 -31 26 -24 31 -141 115 -180 130 -10 3 7 -21 38 -55 67 -73 121
-177 147 -287 23 -92 51 -286 51 -348 0 -24 9 -83 20 -133 34 -156 28 -321
-26 -706 -12 -83 -15 -84 -134 -44 -118 39 -285 79 -257 62 94 -57 230 -150
265 -182 40 -36 44 -44 52 -105 6 -51 17 -82 49 -135 64 -106 58 -155 -33
-277 -69 -93 -96 -147 -96 -195 0 -58 43 -133 115 -199 85 -80 87 -91 83 -367
-3 -217 -4 -222 -30 -280 -27 -56 -29 -58 -60 -53 -41 7 -311 98 -400 134
l-67 28 -21 95 c-12 52 -29 124 -37 160 -19 82 -94 241 -162 345 -53 80 -53
80 -48 145 3 51 18 96 66 208 71 168 91 237 91 323 0 47 -6 72 -24 103 -13 23
-29 67 -36 98 -12 52 -11 63 10 125 26 80 76 152 195 283 88 98 175 217 175
241 0 8 -11 0 -24 -16 -13 -17 -77 -76 -142 -130 -65 -55 -144 -125 -177 -155
-63 -59 -143 -182 -153 -238 -8 -43 -21 -47 -88 -28 -57 17 -125 19 -166 6
l-25 -8 26 -1 c36 -1 109 -52 169 -118 65 -71 94 -126 87 -168 -6 -34 -63
-174 -133 -322 -84 -180 -79 -302 20 -438 29 -40 108 -176 142 -247 l27 -56
-21 -49 c-46 -107 -64 -195 -74 -363 -14 -247 -14 -261 7 -305 l19 -40 6 80
c4 62 12 91 32 125 41 71 106 147 144 171 32 20 43 21 132 14 53 -4 111 -13
127 -20 17 -6 94 -60 172 -119 139 -104 143 -108 177 -179 123 -260 247 -781
232 -979 -6 -82 -27 -158 -44 -158 -4 0 -29 34 -55 75 -57 88 -122 155 -185
192 -92 52 -286 213 -307 253 -21 40 -19 110 4 170 l19 50 -45 -40 c-99 -86
-205 -114 -327 -86 -77 18 -201 82 -256 132 -19 18 -48 44 -65 59 -16 15 -24
24 -17 20 17 -8 15 10 -2 24 -11 9 -15 9 -18 0 -12 -35 -120 53 -254 206 -228
260 -260 474 -116 778 127 268 143 315 149 454 9 182 -14 291 -102 498 -52
123 -56 140 -56 228 -1 106 35 170 171 308 128 130 152 172 231 397 31 89 69
179 84 198 28 36 88 82 202 154 68 43 104 91 135 180 28 77 35 88 71 110 62
38 144 16 212 -58 42 -45 45 -32 6 30 -80 126 -273 129 -339 6 -53 -98 -86
-141 -118 -154 -18 -8 -35 -18 -38 -23 -4 -5 -39 -22 -79 -37 -39 -16 -82 -39
-94 -51 -41 -42 -53 -32 -121 100 -89 174 -88 194 21 371 92 150 96 157 118
206 38 84 42 154 14 223 -13 30 -24 18 -13 -14 13 -37 4 -108 -18 -151 -9 -17
-58 -86 -109 -152 -51 -67 -110 -151 -132 -186 -35 -60 -38 -71 -38 -140 0
-71 3 -81 54 -181 46 -91 54 -116 59 -179 8 -117 -13 -227 -63 -325 -24 -46
-62 -103 -85 -126 -23 -23 -49 -53 -57 -66 -8 -12 -20 -23 -25 -23 -9 0 -88
-75 -88 -83 0 -2 -17 -22 -37 -44 -21 -22 -50 -62 -64 -89 -30 -57 -38 -58
-138 -13 -129 59 -221 73 -271 43 l-25 -15 32 6 c47 9 95 -9 203 -78 145 -92
140 -85 161 -229 14 -97 27 -147 62 -233 67 -163 81 -222 81 -355 1 -127 -7
-158 -90 -360 -95 -232 -115 -293 -125 -377 -17 -155 6 -265 97 -445 19 -37
34 -72 34 -78 0 -11 -233 108 -238 121 -2 5 -10 9 -18 9 -36 0 -219 107 -293
172 -67 58 -91 96 -91 142 0 65 36 114 114 158 l31 17 -65 -5 c-60 -6 -112
-25 -262 -96 -15 -7 -29 -21 -32 -30 -8 -33 -37 -33 -101 0 -131 69 -249 210
-329 397 -48 112 -80 260 -72 334 8 70 42 147 75 170 30 21 221 66 231 54 4
-4 13 -50 19 -101 18 -142 84 -313 146 -375 21 -21 39 -36 42 -34 2 3 -10 26
-27 53 -16 27 -39 87 -51 133 -18 73 -21 104 -16 225 5 156 19 212 66 263 84
92 88 115 39 220 -29 61 -32 77 -32 158 1 191 115 399 268 490 33 19 130 57
216 85 106 33 175 62 217 89 71 46 140 106 155 135 7 15 0 11 -23 -11 -39 -37
-140 -85 -214 -102 -27 -6 -93 -16 -145 -21 -79 -8 -168 -29 -282 -66 -19 -7
-20 -4 -37 129 -7 49 -14 101 -17 117 -5 25 -1 32 37 59 42 31 100 51 249 86
41 10 94 26 117 36 72 31 171 99 217 150 116 129 123 219 41 479 -13 41 -26
91 -29 110 -6 35 -4 38 52 77 31 22 122 98 201 169 244 219 315 263 442 272
60 4 74 1 131 -26 73 -35 98 -56 158 -132 24 -30 74 -91 112 -136 152 -182
166 -282 54 -403 l-31 -35 30 18 c73 45 112 96 125 165 20 105 -17 201 -140
366 -65 87 -93 145 -78 162 19 23 142 87 203 105 44 13 84 17 152 14 80 -3
102 -8 157 -35z m1405 -10 c64 -20 139 -60 160 -85 18 -22 -20 -101 -94 -196
-160 -207 -164 -358 -12 -474 51 -39 55 -31 10 17 -80 87 -83 174 -11 283 25
38 68 94 94 125 27 31 71 82 98 114 59 69 119 109 205 135 79 25 127 25 196 1
72 -25 171 -101 413 -316 63 -55 127 -109 143 -120 33 -23 37 -51 14 -116 -35
-99 -65 -244 -65 -317 0 -64 4 -82 32 -134 43 -81 131 -158 243 -213 89 -45
185 -75 235 -75 48 0 130 -30 165 -61 29 -26 35 -38 35 -70 0 -39 -28 -230
-35 -237 -2 -2 -38 8 -82 21 -43 14 -136 32 -208 42 -166 21 -252 46 -310 91
-26 19 -49 34 -51 31 -2 -2 20 -27 49 -55 64 -60 195 -128 281 -147 139 -29
226 -62 289 -109 52 -38 197 -267 222 -350 25 -84 20 -186 -15 -273 -42 -104
-40 -138 10 -201 60 -75 77 -123 85 -237 12 -166 -20 -348 -74 -424 -27 -38
-27 -49 1 -25 69 61 148 238 174 388 9 50 18 93 20 95 7 8 187 -30 220 -45
115 -55 81 -356 -75 -661 -39 -78 -192 -223 -235 -223 -9 0 -36 16 -61 35 -48
36 -120 62 -195 71 l-45 5 42 -21 c35 -18 131 -125 121 -135 -7 -7 -121 -55
-130 -55 -5 0 -24 -15 -42 -34 -80 -80 -351 -238 -573 -335 -92 -40 -112 -40
-80 -2 21 26 89 191 104 256 37 154 0 390 -94 595 -97 211 -131 340 -118 449
10 85 40 200 76 287 59 148 68 179 69 234 0 91 14 123 73 168 85 65 221 132
270 132 31 0 38 3 27 10 -43 28 -210 -4 -320 -60 -22 -11 -46 -20 -54 -20 -8
0 -28 24 -45 53 -30 52 -80 107 -220 240 -59 56 -79 84 -113 155 -98 210 -103
363 -17 534 16 31 36 83 45 116 15 54 15 63 1 113 -20 67 -67 146 -137 230
-137 164 -187 278 -157 352 20 46 15 47 -12 3 -48 -78 -16 -194 106 -379 85
-129 117 -205 110 -264 -3 -28 -27 -83 -67 -156 -35 -61 -65 -114 -67 -117 -2
-2 -16 4 -31 13 -15 10 -76 42 -135 73 -84 42 -113 62 -129 89 -11 19 -24 35
-29 35 -5 0 -22 27 -39 60 -34 68 -78 97 -161 107 -92 11 -162 -33 -210 -131
l-21 -41 42 48 c70 79 145 105 209 73 36 -19 52 -45 95 -147 40 -98 71 -139
123 -166 160 -81 217 -146 257 -291 10 -35 33 -99 51 -141 75 -175 89 -196
214 -319 145 -141 166 -179 165 -292 -1 -54 -9 -96 -28 -150 -71 -199 -100
-294 -120 -395 -21 -102 -21 -116 -9 -195 20 -124 38 -179 114 -345 86 -190
119 -290 126 -380 10 -127 -31 -283 -101 -385 -90 -133 -413 -409 -573 -491
-194 -99 -330 -89 -455 34 l-56 56 29 -64 c42 -93 46 -132 17 -175 -27 -39
-100 -101 -237 -198 -131 -93 -232 -190 -277 -267 -22 -35 -44 -65 -49 -65
-18 0 -36 62 -42 145 -11 151 33 474 86 640 49 150 92 273 126 353 35 85 37
88 113 139 42 29 117 81 166 115 l90 63 115 5 c64 4 124 4 134 2 9 -2 42 -42
72 -88 87 -134 99 -161 99 -231 1 -35 2 -63 4 -63 2 0 15 25 29 56 24 52 25
61 14 106 -6 27 -11 105 -11 172 0 144 -10 212 -50 324 -17 46 -30 92 -30 103
0 24 59 143 115 229 68 106 82 132 100 189 32 98 9 203 -91 417 -56 120 -84
198 -84 234 0 34 64 132 123 189 28 27 65 50 98 61 47 16 50 19 31 29 -29 15
-100 14 -158 -4 -76 -23 -81 -21 -98 38 -32 110 -109 197 -316 356 -52 40
-117 96 -143 124 l-48 52 16 -39 c20 -50 45 -83 170 -226 55 -63 113 -133 127
-155 80 -119 93 -222 44 -335 -46 -106 -34 -178 75 -435 39 -91 43 -108 43
-185 1 -74 -3 -92 -27 -137 -15 -29 -27 -58 -27 -65 0 -8 -25 -57 -54 -109
-30 -52 -57 -109 -60 -125 -11 -61 -19 -89 -26 -99 -12 -17 -40 -143 -35 -158
10 -25 -14 -67 -47 -81 -18 -8 -105 -38 -193 -67 -88 -28 -178 -60 -199 -70
-52 -25 -78 -24 -103 4 -46 50 -48 60 -51 330 -4 290 -2 304 58 342 51 32 106
92 130 141 41 83 16 164 -85 284 -91 108 -96 163 -26 279 35 58 41 75 41 125
0 54 3 61 35 91 20 18 74 54 121 81 93 54 190 120 160 110 -10 -3 -64 -18
-120 -32 -55 -14 -130 -34 -165 -45 -35 -10 -69 -19 -75 -19 -13 0 -26 54 -57
245 -27 169 -26 434 1 565 11 52 25 149 30 215 12 140 15 157 42 250 25 86
111 235 169 293 24 23 38 42 33 42 -24 0 -136 -84 -180 -135 -60 -71 -66 -65
-82 79 -7 57 -19 126 -26 153 -63 225 -66 287 -24 385 66 154 302 226 517 159z
m-3043 -639 c1 -26 11 -98 24 -161 32 -163 16 -241 -69 -334 -68 -74 -148
-101 -394 -136 -42 -6 -103 -22 -135 -35 -31 -14 -60 -21 -65 -17 -13 13 22
149 57 219 64 127 144 218 280 320 97 73 275 189 291 191 6 0 10 -20 11 -47z
m4464 -34 c165 -97 322 -224 385 -313 77 -107 128 -220 128 -283 0 -29 -2 -55
-5 -58 -3 -2 -21 4 -39 15 -50 29 -131 49 -255 65 -197 24 -314 98 -350 221
-18 65 -14 153 13 290 9 44 17 89 19 100 1 11 3 22 3 24 1 2 11 -4 24 -13 12
-8 47 -30 77 -48z m-5105 -900 c8 -237 -1 -291 -81 -463 -107 -229 -122 -301
-89 -411 8 -27 15 -61 15 -75 0 -35 -44 -116 -88 -162 -63 -66 -107 -86 -214
-97 -108 -11 -128 -16 -128 -36 0 -24 -19 -15 -35 17 -23 43 -31 215 -16 320
17 112 53 194 144 326 97 141 133 214 195 395 62 180 79 212 136 271 41 43
130 107 147 107 4 0 10 -87 14 -192z m5743 134 c96 -77 118 -115 171 -292 50
-166 114 -296 186 -380 113 -131 175 -306 175 -490 0 -92 -19 -210 -35 -210
-2 0 -16 5 -32 11 -15 6 -64 17 -108 25 -144 28 -215 74 -266 176 -29 57 -29
61 -18 123 6 36 9 100 7 143 -3 68 -13 99 -80 267 -105 261 -112 286 -104 404
17 289 16 282 40 269 11 -6 41 -26 64 -46z m-6398 -1747 c6 -66 15 -138 21
-160 16 -66 60 -166 103 -235 22 -36 58 -99 79 -140 35 -68 38 -81 35 -134 -4
-55 -7 -61 -49 -97 -24 -21 -82 -59 -129 -84 -47 -25 -106 -62 -130 -82 -49
-40 -105 -101 -99 -108 2 -2 40 14 84 36 109 53 437 145 571 160 140 17 151
13 315 -112 41 -30 94 -67 119 -81 75 -42 260 -110 349 -127 47 -9 86 -22 89
-29 2 -6 -25 -40 -60 -74 -58 -56 -148 -192 -136 -204 3 -2 22 9 42 25 64 51
327 141 411 141 34 0 50 -7 86 -37 154 -132 207 -168 380 -255 131 -66 139
-74 159 -171 14 -72 16 -69 -112 -154 -126 -83 -281 -221 -324 -289 -63 -99
-69 -195 -15 -253 37 -39 52 -40 45 -2 -9 41 11 92 50 130 18 18 103 80 189
139 220 151 327 249 408 374 30 47 38 50 96 34 158 -41 442 -340 540 -567 74
-171 123 -492 123 -804 -1 -319 -30 -474 -106 -549 -27 -26 -34 -28 -84 -23
-30 3 -81 16 -112 30 -55 25 -217 119 -303 177 -95 64 -147 84 -220 85 -41 0
-85 -6 -105 -15 l-35 -15 75 -5 c65 -5 84 -11 140 -45 36 -22 106 -78 155
-126 109 -104 240 -203 314 -236 34 -15 80 -26 120 -28 l66 -4 6 -178 c4 -133
12 -203 29 -278 32 -139 35 -383 5 -465 -16 -45 -25 -56 -45 -58 -20 -2 -22
-1 -10 8 12 10 11 11 -8 7 -13 -3 -21 -3 -18 0 8 8 -171 93 -195 93 -23 0 -69
21 -69 31 0 11 -111 52 -137 51 -49 -3 -479 159 -553 208 -24 16 -46 27 -49
24 -8 -8 116 -123 190 -176 66 -47 116 -76 414 -238 244 -133 328 -185 369
-230 62 -69 65 -95 18 -158 -20 -28 -29 -33 -56 -29 -37 5 -78 -16 -51 -27 31
-12 13 -34 -52 -64 -105 -48 -157 -56 -338 -49 -137 5 -346 29 -462 53 -18 4
-33 4 -33 1 0 -3 35 -25 78 -50 155 -91 354 -156 535 -177 77 -9 96 -15 114
-35 26 -29 37 -92 31 -181 -3 -55 -2 -63 9 -48 15 20 68 179 83 249 15 71 54
122 101 137 85 25 114 -32 114 -222 0 -114 -8 -160 -28 -160 -6 0 -23 -21 -36
-46 -14 -25 -35 -53 -48 -61 -21 -14 -23 -22 -23 -108 0 -101 -23 -198 -65
-270 -97 -168 -327 -225 -418 -103 l-20 27 41 111 c52 138 68 230 53 313 -12
66 -50 132 -85 144 -11 4 -93 8 -181 8 -88 0 -194 5 -235 12 -106 16 -220 24
-220 16 1 -17 184 -117 248 -135 44 -13 113 -21 205 -25 127 -5 139 -8 150
-27 16 -28 12 -243 -5 -316 l-13 -55 -87 -3 c-68 -2 -89 1 -102 13 -10 10 -24
14 -36 10 -25 -8 -206 53 -308 104 -132 66 -311 217 -425 356 -48 60 -49 68
-12 109 19 21 37 51 40 66 6 26 -57 308 -115 517 -11 40 -20 90 -20 112 l0 40
233 0 c142 0 288 5 377 15 80 8 190 17 245 18 90 2 104 0 138 -20 41 -26 45
-23 21 17 -33 57 -157 109 -309 131 -38 6 -185 13 -325 16 -287 7 -378 21
-490 77 -76 38 -95 52 -175 132 -90 89 -225 303 -225 356 0 5 49 60 108 122
60 62 120 132 134 157 26 46 63 148 56 155 -2 2 -24 -12 -48 -31 -74 -59 -95
-66 -174 -62 -129 6 -224 73 -295 209 -18 34 -39 68 -47 77 -41 40 15 93 106
100 33 2 60 8 60 11 0 4 -24 13 -52 21 -129 32 -214 97 -283 217 -59 100 -139
194 -243 283 -186 160 -309 203 -516 180 -53 -6 -106 -8 -117 -5 -53 17 -92
215 -70 363 7 48 21 106 31 129 23 53 191 306 210 318 5 3 22 -14 36 -37 56
-88 122 -207 135 -242 7 -20 17 -36 21 -36 10 0 10 -3 -7 77 -17 83 -54 177
-140 358 -45 95 -104 253 -129 345 -42 152 -63 493 -47 750 30 463 123 761
295 944 25 27 48 48 50 45 2 -2 9 -58 16 -124z m7018 83 c23 -24 49 -54 60
-68 155 -201 254 -714 238 -1235 -10 -321 -32 -417 -171 -745 -46 -107 -90
-222 -99 -255 -16 -65 -32 -185 -24 -185 3 0 15 26 27 59 11 32 35 75 51 96
17 21 33 50 37 64 8 35 41 81 58 81 14 0 127 -165 168 -246 14 -28 33 -78 41
-111 28 -105 16 -312 -21 -390 -13 -29 -20 -33 -53 -33 -20 0 -87 11 -148 25
-121 27 -217 32 -290 13 -36 -9 -60 -25 -102 -67 -48 -48 -61 -71 -98 -169
-24 -62 -65 -145 -92 -185 -53 -79 -151 -176 -226 -222 -42 -26 -51 -37 -66
-85 -9 -30 -17 -76 -17 -102 -2 -140 -41 -205 -157 -262 -137 -68 -210 -60
-306 32 -32 30 -58 53 -58 50 0 -13 26 -80 57 -147 27 -59 53 -95 127 -170
102 -105 116 -125 116 -170 0 -56 -89 -197 -188 -299 -13 -13 -21 -27 -17 -30
7 -8 -86 -93 -95 -87 -5 3 -10 -1 -13 -8 -8 -22 -128 -76 -202 -92 -44 -10
-173 -19 -345 -25 -296 -10 -376 -19 -485 -51 -90 -26 -151 -62 -176 -102 -27
-45 -24 -49 17 -25 34 20 44 20 227 15 106 -4 251 -11 322 -17 72 -6 200 -7
285 -4 l155 7 14 -27 c13 -22 12 -33 -4 -86 -10 -33 -21 -60 -25 -60 -15 0
-74 -244 -72 -295 1 -11 -8 -49 -18 -84 -28 -90 -26 -130 10 -179 17 -23 30
-48 30 -56 0 -18 -102 -145 -167 -208 -61 -59 -191 -152 -265 -189 -53 -27
-311 -120 -326 -118 -4 1 -11 0 -17 -1 -39 -11 -196 -13 -207 -2 -17 17 -31
197 -22 282 l9 85 115 2 c169 2 278 35 450 138 l45 27 -120 -6 c-66 -3 -174
-13 -240 -21 -69 -9 -144 -13 -177 -9 -69 8 -119 0 -147 -25 -86 -74 -81 -282
10 -463 48 -94 36 -134 -48 -164 -55 -19 -114 -17 -180 7 -99 36 -233 191
-233 270 0 10 5 19 10 19 18 0 11 29 -10 40 -17 9 -20 21 -20 93 0 45 -4 87
-8 92 -4 6 -23 22 -43 37 -21 15 -48 49 -60 75 -22 43 -24 62 -24 178 0 110 3
136 20 170 24 48 57 56 117 29 53 -24 72 -60 101 -190 14 -61 36 -133 50 -160
l25 -49 -1 75 c-1 85 25 185 51 199 9 5 44 12 77 16 174 20 442 111 595 203
l55 33 -63 -6 c-34 -3 -107 -15 -161 -25 -129 -24 -414 -36 -501 -21 -74 13
-168 56 -220 100 -45 37 -31 53 22 23 41 -24 137 -57 144 -49 2 2 -26 16 -63
31 -38 15 -86 40 -108 56 -22 17 -52 35 -67 41 -77 31 19 141 222 253 69 38
186 104 260 147 74 42 160 89 190 104 80 40 216 135 285 199 59 56 70 85 18
49 -39 -28 -83 -49 -196 -94 -143 -57 -327 -120 -362 -123 -46 -4 -335 -117
-335 -131 0 -7 -30 -32 -67 -55 l-67 -42 -18 24 c-43 56 -58 228 -35 404 31
234 39 338 36 458 l-4 121 51 -3 c28 -2 69 1 90 7 86 23 272 153 428 300 123
116 217 160 302 141 46 -11 43 -3 -8 20 -99 45 -200 14 -424 -129 -87 -56
-170 -104 -184 -107 -14 -2 -46 -16 -73 -29 -95 -50 -165 -27 -207 68 -90 205
-71 963 31 1227 49 128 133 270 159 270 6 0 10 7 10 14 0 8 16 27 35 42 20 15
34 28 32 31 -2 2 17 25 42 51 26 26 60 63 76 82 61 71 147 125 217 137 37 5
41 3 96 -54 31 -32 72 -78 91 -102 18 -24 68 -68 109 -99 41 -32 107 -81 146
-110 39 -30 108 -78 153 -108 45 -30 98 -73 118 -96 35 -38 37 -44 33 -90 -5
-47 -5 -48 16 -35 41 27 66 77 66 131 0 104 -117 248 -329 406 -171 127 -161
117 -161 159 0 50 28 131 49 138 9 4 23 12 31 20 8 7 67 39 130 69 107 52 230
134 274 183 11 11 22 21 26 21 5 0 22 14 40 30 38 35 71 38 164 14 124 -31
250 -81 309 -121 20 -14 39 -24 42 -22 2 3 -7 28 -20 56 -25 55 -127 163 -177
189 -17 9 -28 18 -25 20 3 3 63 19 133 35 145 34 292 86 374 131 30 17 97 64
148 104 l94 74 83 0 c123 0 419 -63 521 -111 22 -10 45 -19 51 -19 6 0 45 -16
87 -35 86 -39 88 -34 17 47 -24 27 -91 78 -158 120 -119 75 -180 125 -202 167
-19 35 1 99 69 221 32 58 70 131 84 162 38 86 76 243 83 341 3 48 9 87 14 87
4 0 25 -19 47 -42z m-7219 -3063 c121 -7 175 -23 251 -75 93 -64 245 -233 291
-321 10 -21 19 -54 19 -74 0 -29 -5 -37 -27 -46 -152 -60 -238 -123 -258 -189
l-7 -25 28 27 c16 15 55 39 88 54 54 25 65 26 145 20 152 -11 202 -39 253
-140 11 -22 54 -95 96 -161 87 -138 104 -185 95 -262 -7 -63 -49 -133 -90
-152 -61 -28 -175 -23 -328 15 -16 4 -17 3 -5 -5 24 -17 -5 -13 -44 6 -19 9
-32 21 -29 26 4 6 0 8 -10 4 -10 -3 -17 -2 -17 3 0 6 -7 10 -15 10 -8 0 -15 4
-15 9 0 11 -78 64 -105 71 -26 7 -146 146 -203 235 -71 111 -129 238 -182 403
-60 185 -94 316 -115 442 -23 145 -24 142 33 136 26 -3 94 -8 151 -11z m7441
1 c30 0 72 2 92 6 l37 7 -6 -52 c-16 -158 -132 -583 -203 -749 -47 -109 -123
-232 -161 -260 -16 -12 -40 -39 -54 -60 -14 -21 -31 -38 -38 -38 -6 0 -30 -19
-51 -42 -21 -24 -35 -36 -30 -28 5 9 -2 4 -15 -10 -13 -14 -20 -18 -16 -10 4
8 -3 4 -15 -10 -12 -14 -19 -18 -15 -10 4 8 -3 4 -15 -10 -12 -14 -19 -19 -15
-12 6 11 3 12 -14 3 -11 -7 -21 -14 -21 -17 0 -3 5 -2 10 1 6 3 10 3 10 0 0
-13 -87 -44 -111 -39 -19 5 -21 4 -9 -6 12 -9 8 -10 -20 -5 -19 3 -30 3 -23
-2 6 -4 -25 -9 -70 -10 -45 -2 -95 -5 -111 -9 -22 -5 -27 -3 -21 7 6 9 3 11
-8 6 -20 -8 -69 12 -61 25 3 5 2 8 -3 7 -39 -7 -58 33 -68 143 -8 89 -6 92 93
237 36 53 77 124 92 157 34 75 67 106 134 129 124 42 271 25 343 -38 35 -31
36 -31 28 -7 -16 54 -56 90 -148 135 -51 25 -98 45 -105 45 -6 0 -16 17 -23
39 -13 45 1 84 55 147 46 53 112 157 146 230 29 59 47 74 130 108 8 3 62 3
120 0 58 -4 130 -7 160 -8z m-6371 -1584 c65 -187 193 -337 371 -434 l31 -18
-6 -152 c-10 -207 11 -293 96 -412 17 -22 28 -48 26 -58 -3 -11 0 -18 9 -18
19 0 18 -29 -1 -36 -23 -9 -119 40 -197 102 -91 72 -272 257 -342 349 -29 39
-63 79 -75 90 -38 33 -117 147 -154 220 -70 141 -95 280 -65 366 15 44 23 49
83 49 28 0 79 9 115 19 36 11 69 19 73 18 4 -1 21 -39 36 -85z m5460 48 c70 0
85 -21 90 -126 6 -164 -73 -339 -252 -554 -108 -129 -334 -353 -349 -344 -7 4
-10 4 -6 0 12 -13 -64 -81 -122 -109 -75 -37 -120 -45 -120 -23 0 16 36 71 69
106 23 24 68 131 81 193 8 39 9 104 5 205 l-7 147 72 50 c40 27 97 72 127 99
82 75 180 227 213 331 20 64 23 65 91 44 34 -11 82 -19 108 -19z"/>
<path d="M3966 10140 c-27 -11 -54 -24 -60 -31 -6 -6 4 -4 21 5 18 9 56 23 85
30 30 9 42 15 28 15 -14 0 -47 -9 -74 -19z"/>
<path d="M3436 10073 c-80 -24 -141 -70 -165 -122 -28 -65 -35 -105 -8 -51 39
79 58 99 125 132 56 28 78 33 135 33 62 0 66 1 40 12 -37 16 -67 15 -127 -4z"/>
<path d="M4156 10027 c3 -7 25 -27 49 -45 59 -45 93 -115 101 -212 9 -102 19
-114 21 -27 5 137 -26 202 -125 264 -28 17 -49 26 -46 20z"/>
<path d="M3650 9716 c0 -2 13 -33 30 -68 16 -34 30 -71 30 -81 0 -38 -34 -95
-93 -156 l-62 -65 64 54 c105 89 127 170 71 268 -27 45 -40 62 -40 48z"/>
<path d="M3171 9638 c-47 -21 -134 -29 -186 -15 l-30 7 27 -15 c50 -28 109
-29 166 -5 28 12 57 28 63 36 14 17 14 17 -40 -8z"/>
<path d="M2877 8889 c12 -12 24 -21 27 -18 2 2 -8 13 -22 23 l-27 19 22 -24z"/>
<path d="M3983 8810 c-18 -10 -44 -37 -58 -59 -28 -41 -83 -71 -133 -71 -91 0
-167 -52 -211 -143 -38 -79 -50 -128 -15 -62 64 123 119 167 224 181 75 9 101
25 143 83 27 37 46 53 74 60 58 16 117 13 174 -9 29 -12 59 -20 67 -18 8 2
-18 15 -57 31 -86 33 -161 36 -208 7z"/>
<path d="M3070 8630 c-17 -40 -82 -98 -139 -122 -31 -13 -57 -35 -80 -66 l-34
-47 55 51 c30 28 65 55 79 59 39 12 105 71 124 110 9 20 15 39 12 41 -2 3 -10
-9 -17 -26z"/>
<path d="M4291 8317 c-19 -29 -27 -46 -18 -38 19 15 61 80 56 86 -2 2 -19 -20
-38 -48z"/>
<path d="M4230 8260 c-9 -6 -10 -10 -3 -10 6 0 15 5 18 10 8 12 4 12 -15 0z"/>
<path d="M2246 8045 c-9 -26 -7 -32 5 -12 6 10 9 21 6 23 -2 3 -7 -2 -11 -11z"/>
<path d="M2232 7990 c0 -14 2 -19 5 -12 2 6 2 18 0 25 -3 6 -5 1 -5 -13z"/>
<path d="M2231 7911 c-2 -50 41 -115 95 -147 31 -18 68 -29 121 -35 97 -11
119 -31 161 -151 17 -48 46 -116 63 -150 18 -35 41 -90 51 -123 18 -57 18 -58
13 -15 -3 25 -20 74 -36 110 -17 36 -51 115 -76 175 -25 61 -52 118 -61 129
-25 28 -75 46 -129 46 -85 0 -178 75 -193 157 l-8 38 -1 -34z"/>
<path d="M3336 7768 c45 -49 53 -85 31 -128 -52 -97 -67 -129 -72 -155 -4 -16
4 -5 18 26 13 31 34 71 48 90 42 59 25 162 -31 184 -9 4 -6 -3 6 -17z"/>
<path d="M4135 7698 c31 -65 32 -124 4 -213 -11 -36 -18 -74 -16 -83 3 -12 5
-10 6 5 0 13 10 46 21 75 28 73 26 150 -5 216 -13 28 -26 52 -29 52 -3 0 6
-24 19 -52z"/>
<path d="M2262 7451 c20 -11 45 -32 56 -46 29 -36 38 -137 22 -249 -29 -214
-27 -228 47 -428 56 -154 62 -149 60 54 -1 151 2 183 21 252 52 187 5 341
-122 404 -25 13 -63 25 -83 28 l-38 5 37 -20z"/>
<path d="M4026 7243 c-6 -14 -5 -15 5 -6 7 7 10 15 7 18 -3 3 -9 -2 -12 -12z"/>
<path d="M2741 7224 c0 -11 3 -14 6 -6 3 7 2 16 -1 19 -3 4 -6 -2 -5 -13z"/>
<path d="M4006 7204 c-26 -67 13 -163 120 -299 38 -47 81 -105 97 -128 15 -22
27 -38 27 -34 0 20 -47 95 -114 184 -96 128 -117 170 -117 238 -1 58 -3 65
-13 39z"/>
<path d="M3341 6814 c0 -11 3 -14 6 -6 3 7 2 16 -1 19 -3 4 -6 -2 -5 -13z"/>
<path d="M1855 6761 c17 -18 44 -39 60 -47 l30 -14 -25 17 c-13 10 -40 31 -60
48 l-35 29 30 -33z"/>
<path d="M3352 6750 c3 -84 -2 -98 -71 -202 -78 -119 -92 -155 -92 -232 0 -60
30 -143 63 -173 13 -12 9 0 -13 35 -29 47 -33 62 -33 120 0 76 13 106 101 238
49 74 56 90 60 146 3 35 0 74 -6 88 -10 22 -11 20 -9 -20z"/>
<path d="M2465 6390 c19 -8 93 -14 84 -6 -2 2 -26 6 -54 9 -32 4 -43 3 -30 -3z"/>
<path d="M4080 5901 c65 -7 142 -43 162 -74 30 -46 50 -115 58 -197 l9 -85 -3
90 c-4 143 -48 221 -144 259 -23 9 -64 15 -90 15 l-47 -2 55 -6z"/>
<path d="M4312 5520 c0 -14 2 -19 5 -12 2 6 2 18 0 25 -3 6 -5 1 -5 -13z"/>
<path d="M5649 10071 c-24 -16 -73 -37 -109 -46 -35 -9 -77 -23 -93 -31 -31
-17 -67 -83 -66 -124 0 -14 3 -18 5 -10 30 91 59 118 157 143 32 8 80 30 107
47 53 34 101 41 153 21 40 -16 33 -4 -9 14 -55 23 -95 19 -145 -14z"/>
<path d="M6200 10060 c-21 -7 -18 -8 20 -9 49 -1 222 -61 254 -89 15 -12 14
-9 -3 10 -25 29 -149 82 -211 91 -19 3 -46 2 -60 -3z"/>
<path d="M6077 9766 c-5 -22 -22 -64 -39 -95 -24 -46 -29 -64 -25 -101 4 -39
11 -50 53 -85 96 -80 143 -133 159 -182 11 -35 14 -39 10 -15 -7 51 -33 98
-74 136 -20 19 -57 55 -83 79 -41 38 -48 50 -48 82 0 22 13 65 31 101 18 38
29 75 27 91 -3 25 -4 24 -11 -11z"/>
<path d="M6578 9674 c24 -7 59 -27 78 -44 39 -34 90 -40 134 -15 23 13 21 13
-30 8 -51 -4 -59 -2 -105 31 -36 26 -60 36 -85 35 l-35 -1 43 -14z"/>
<path d="M5620 8878 c-19 -5 -57 -8 -84 -5 -45 4 -48 3 -30 -10 13 -10 32 -13
64 -8 139 19 153 18 190 -13 29 -24 35 -38 41 -83 l6 -54 2 47 c1 63 -12 94
-51 118 -35 21 -82 24 -138 8z"/>
<path d="M5988 8590 c59 -40 94 -77 125 -135 21 -38 22 -25 2 23 -21 49 -48
76 -116 118 -78 47 -85 43 -11 -6z"/>
<path d="M6780 8525 c0 -5 5 -17 10 -25 5 -8 10 -10 10 -5 0 6 -5 17 -10 25
-5 8 -10 11 -10 5z"/>
<path d="M6800 8472 c0 -33 112 -122 152 -122 7 0 -10 11 -39 24 -34 16 -63
39 -82 67 -17 23 -31 37 -31 31z"/>
<path d="M6978 8343 c7 -3 16 -2 19 1 4 3 -2 6 -13 5 -11 0 -14 -3 -6 -6z"/>
<path d="M7018 8333 c7 -3 16 -2 19 1 4 3 -2 6 -13 5 -11 0 -14 -3 -6 -6z"/>
<path d="M7508 8041 c10 -28 18 -46 20 -41 5 13 -17 78 -28 85 -4 3 -1 -17 8
-44z"/>
<path d="M7527 7940 c-19 -110 -73 -175 -177 -216 -88 -34 -150 -82 -227 -174
-58 -69 -123 -180 -123 -210 0 -7 19 25 41 71 34 68 59 101 130 171 73 72 103
94 181 131 60 28 105 58 126 81 33 38 66 130 60 168 -2 15 -6 8 -11 -22z"/>
<path d="M5613 7714 c-28 -44 -23 -146 12 -219 15 -33 32 -73 36 -90 l7 -30 1
27 c1 15 -11 58 -25 95 -29 76 -36 182 -16 221 17 31 6 28 -15 -4z"/>
<path d="M6451 7668 c0 -9 -4 -25 -7 -35 -5 -17 -5 -17 6 0 6 10 9 25 7 35 -4
15 -5 15 -6 0z"/>
<path d="M6400 7550 c-6 -11 -8 -20 -6 -20 3 0 10 9 16 20 6 11 8 20 6 20 -3
0 -10 -9 -16 -20z"/>
<path d="M7410 7449 c-56 -25 -105 -71 -133 -124 -35 -67 -36 -197 -2 -326 26
-98 27 -113 21 -249 -6 -163 -2 -167 54 -45 74 159 85 259 49 435 -33 160 -10
265 66 311 43 27 5 25 -55 -2z"/>
<path d="M5650 7361 c0 -5 7 -15 17 -22 15 -13 15 -12 4 9 -12 23 -21 28 -21
13z"/>
<path d="M5724 7288 c108 -138 91 -218 -83 -388 -59 -58 -111 -115 -114 -127
-7 -30 -3 -29 20 6 10 15 53 57 96 91 131 105 179 199 157 305 -10 50 -20 67
-63 109 l-50 51 37 -47z"/>
<path d="M8015 6790 c-16 -16 -48 -37 -72 -46 -61 -24 -143 -67 -113 -60 55
12 157 66 189 100 19 20 33 36 30 36 -3 0 -18 -13 -34 -30z"/>
<path d="M6411 6663 c-1 -45 7 -67 58 -168 87 -168 89 -209 16 -329 -18 -31
-32 -56 -30 -56 16 0 88 112 101 156 15 52 15 58 -5 123 -11 37 -34 86 -51
110 -46 64 -71 115 -80 168 l-8 48 -1 -52z"/>
<path d="M6429 6083 c-13 -16 -12 -17 4 -4 9 7 17 15 17 17 0 8 -8 3 -21 -13z"/>
<path d="M5515 5829 c-4 -6 -5 -12 -2 -15 2 -3 7 2 10 11 7 17 1 20 -8 4z"/>
<path d="M5495 5789 c-4 -6 -5 -12 -2 -15 2 -3 7 2 10 11 7 17 1 20 -8 4z"/>
<path d="M5473 5675 c0 -27 2 -38 4 -22 2 15 2 37 0 50 -2 12 -4 0 -4 -28z"/>
<path d="M5429 5483 l-24 -28 28 24 c15 14 27 26 27 28 0 8 -8 1 -31 -24z"/>
<path d="M5150 4926 c0 -8 4 -17 9 -20 5 -4 7 3 4 14 -6 23 -13 26 -13 6z"/>
<path d="M2494 9328 c-20 -17 -52 -57 -72 -87 -21 -30 -56 -70 -80 -88 -45
-34 -42 -44 6 -19 35 18 70 57 117 130 21 32 52 67 69 77 21 13 25 19 14 19
-10 0 -34 -14 -54 -32z"/>
<path d="M7201 9314 c19 -22 52 -65 72 -96 40 -62 65 -83 112 -94 29 -6 29 -6
-11 23 -41 31 -62 55 -114 130 -16 23 -44 50 -62 59 l-33 16 36 -38z"/>
<path d="M1894 8658 l-19 -23 23 19 c21 18 27 26 19 26 -2 0 -12 -10 -23 -22z"/>
<path d="M1836 8560 c-22 -56 -19 -65 5 -11 11 24 18 46 15 48 -2 2 -11 -14
-20 -37z"/>
<path d="M1826 8163 c-8 -16 -32 -48 -53 -73 -43 -48 -68 -89 -60 -97 3 -2 8
5 12 17 4 12 27 44 51 71 41 46 81 109 70 109 -3 0 -12 -12 -20 -27z"/>
<path d="M1695 7969 c-4 -6 -5 -12 -2 -15 2 -3 7 2 10 11 7 17 1 20 -8 4z"/>
<path d="M1654 7928 l-19 -23 23 19 c21 18 27 26 19 26 -2 0 -12 -10 -23 -22z"/>
<path d="M1626 7891 c-4 -5 -9 -31 -12 -58 -4 -26 -11 -57 -17 -68 -7 -16 -7
-17 3 -8 7 6 18 41 24 77 13 65 13 75 2 57z"/>
<path d="M7790 8261 c5 -11 15 -23 21 -27 6 -3 3 5 -6 20 -20 30 -30 35 -15 7z"/>
<path d="M8052 7885 c0 -16 2 -22 5 -12 2 9 2 23 0 30 -3 6 -5 -1 -5 -18z"/>
<path d="M8056 7834 c-10 -27 -7 -83 8 -119 15 -35 44 -58 86 -70 16 -4 9 4
-22 24 -53 34 -74 79 -65 142 5 41 3 49 -7 23z"/>
<path d="M1321 6564 c0 -11 3 -14 6 -6 3 7 2 16 -1 19 -3 4 -6 -2 -5 -13z"/>
<path d="M1331 6524 c-1 -12 6 -27 14 -34 37 -31 11 -65 -82 -109 -37 -18 -80
-51 -120 -94 -35 -36 -63 -67 -63 -70 0 -2 34 29 77 69 53 52 90 78 123 89 53
18 85 47 95 86 5 19 2 28 -9 32 -9 4 -21 17 -26 29 -9 22 -9 22 -9 2z"/>
<path d="M1910 5915 c26 -14 62 -24 87 -25 38 0 49 -6 102 -58 38 -38 55 -49
46 -33 -29 57 -106 111 -156 111 -20 0 -53 7 -72 15 -54 23 -58 17 -7 -10z"/>
<path d="M2175 5740 c10 -11 20 -20 23 -20 3 0 -3 9 -13 20 -10 11 -20 20 -23
20 -3 0 3 -9 13 -20z"/>
<path d="M1560 5705 c-166 -29 -311 -57 -308 -61 2 -2 115 -10 250 -19 377
-24 403 -37 427 -214 15 -116 15 -201 -2 -201 -26 0 -183 -105 -235 -157 -47
-46 -119 -169 -107 -181 2 -3 20 7 40 22 90 69 272 128 329 106 18 -6 27 -22
36 -62 15 -61 21 -74 68 -146 38 -58 86 -94 247 -185 55 -31 121 -71 146 -89
267 -189 311 -217 430 -272 85 -40 99 -59 99 -135 0 -40 -6 -54 -34 -87 -38
-45 -131 -92 -236 -121 -86 -24 -260 -23 -350 1 -72 19 -212 81 -305 134 -65
38 -225 159 -225 170 0 4 -16 25 -35 47 -54 60 -112 163 -130 230 -25 87 -35
90 -35 8 0 -88 23 -201 55 -270 72 -158 246 -320 452 -422 124 -61 196 -76
358 -76 133 0 145 2 229 33 139 50 197 43 268 -36 81 -90 132 -256 145 -468 7
-134 -7 -186 -70 -258 -94 -109 -158 -194 -182 -241 -31 -63 -48 -154 -40
-214 10 -71 20 -76 21 -11 2 119 83 227 249 335 50 32 108 73 129 91 22 19 46
34 53 34 8 0 51 -18 96 -39 87 -42 274 -106 395 -137 43 -11 72 -23 72 -31 0
-13 22 -17 68 -13 51 4 257 -82 354 -148 63 -42 68 -44 68 -32 0 7 -30 43 -67
82 -132 136 -324 242 -673 368 -75 28 -163 77 -203 115 -39 37 -61 85 -103
226 -20 68 -48 160 -62 204 -35 114 -35 237 1 322 35 87 81 147 152 200 125
94 269 149 372 140 103 -8 129 -25 416 -272 42 -36 77 -62 77 -56 0 10 -125
201 -139 211 -15 12 -81 99 -81 108 0 9 -143 123 -177 140 -24 13 -127 25
-188 23 -111 -4 -260 -62 -412 -160 -44 -28 -88 -51 -97 -51 -21 0 -127 53
-186 93 -64 44 -139 116 -167 160 -76 120 -112 352 -79 511 9 44 14 81 12 83
-2 3 -17 -17 -32 -43 -17 -29 -44 -111 -69 -211 l-42 -163 -59 41 c-32 22
-116 78 -185 124 -70 46 -135 96 -146 112 -30 42 -50 112 -68 231 -28 181 -64
358 -85 414 -28 75 -79 132 -137 153 -66 24 -252 29 -363 10z"/>
<path d="M2228 5713 c7 -3 16 -2 19 1 4 3 -2 6 -13 5 -11 0 -14 -3 -6 -6z"/>
<path d="M1576 5364 c-22 -8 -63 -36 -91 -64 -57 -53 -87 -66 -141 -57 -41 7
-44 0 -6 -14 52 -20 107 -3 160 51 26 28 70 61 98 74 54 27 42 33 -20 10z"/>
<path d="M2859 5320 c-39 -10 -269 -120 -251 -120 7 0 58 21 114 46 78 35 119
48 169 52 63 4 66 3 101 -30 61 -57 70 -132 26 -223 l-19 -40 20 25 c31 38 44
86 39 147 -9 108 -94 169 -199 143z"/>
<path d="M3838 4780 c-42 -11 -168 -66 -168 -74 0 -3 21 5 47 16 145 64 292
64 386 1 49 -34 71 -72 98 -168 25 -93 56 -156 101 -205 17 -19 24 -24 15 -10
-54 80 -71 120 -97 219 -34 128 -53 159 -124 197 -43 24 -65 28 -136 31 -47 1
-102 -2 -122 -7z"/>
<path d="M1953 4458 c60 -74 127 -113 277 -161 163 -53 192 -67 249 -121 l44
-41 -19 34 c-40 71 -98 104 -275 157 -153 46 -181 59 -255 126 l-59 53 38 -47z"/>
<path d="M1190 4467 c0 -3 14 -22 31 -41 28 -32 119 -77 152 -75 7 0 -13 9
-43 20 -33 12 -71 36 -97 61 -24 23 -43 39 -43 35z"/>
<path d="M3775 3830 c-27 -16 -43 -30 -34 -30 9 0 27 8 40 19 13 10 38 23 54
29 22 7 24 11 10 11 -11 0 -42 -13 -70 -29z"/>
<path d="M3928 3853 c7 -3 16 -2 19 1 4 3 -2 6 -13 5 -11 0 -14 -3 -6 -6z"/>
<path d="M3990 3836 c0 -3 9 -10 20 -16 11 -6 20 -8 20 -6 0 3 -9 10 -20 16
-11 6 -20 8 -20 6z"/>
<path d="M3653 3803 c15 -2 37 -2 50 0 12 2 0 4 -28 4 -27 0 -38 -2 -22 -4z"/>
<path d="M3544 3768 c-26 -18 -54 -44 -63 -58 -10 -17 -2 -12 24 14 21 21 57
47 79 57 23 10 34 19 25 19 -9 0 -38 -15 -65 -32z"/>
<path d="M2670 3421 c-19 -9 -74 -39 -121 -64 -47 -26 -97 -47 -110 -47 -13 0
-31 -5 -39 -11 -12 -8 -11 -9 5 -6 11 3 37 8 57 11 20 4 78 30 129 58 97 53
160 69 198 49 11 -7 21 -9 21 -6 0 9 -66 35 -87 35 -10 -1 -34 -9 -53 -19z"/>
<path d="M2358 3303 c7 -3 16 -2 19 1 4 3 -2 6 -13 5 -11 0 -14 -3 -6 -6z"/>
<path d="M2805 3002 c-11 -20 -66 -82 -122 -138 -75 -73 -103 -108 -103 -125
0 -20 4 -17 19 16 11 24 42 58 76 85 31 24 69 60 84 80 36 46 74 110 69 115
-2 2 -13 -12 -23 -33z"/>
<path d="M3131 2440 c31 -41 136 -99 194 -105 l40 -5 -45 13 c-77 24 -138 56
-177 95 l-37 37 25 -35z"/>
<path d="M3378 2323 c7 -3 16 -2 19 1 4 3 -2 6 -13 5 -11 0 -14 -3 -6 -6z"/>
<path d="M3653 1783 c9 -2 25 -2 35 0 9 3 1 5 -18 5 -19 0 -27 -2 -17 -5z"/>
<path d="M3156 1649 c41 -44 50 -63 59 -124 16 -112 68 -150 221 -160 54 -3
119 -8 144 -11 25 -3 42 -3 39 0 -4 4 -60 13 -127 21 -185 21 -242 55 -263
153 -15 75 -32 106 -71 133 l-33 22 31 -34z"/>
<path d="M3225 995 c96 -45 227 -89 270 -91 l50 -3 -51 8 c-29 5 -78 21 -110
36 -53 24 -171 66 -184 64 -3 0 9 -7 25 -14z"/>
<path d="M4247 649 c-16 -16 -45 -38 -65 -49 -20 -10 -30 -19 -21 -20 21 0 95
54 109 80 14 26 11 25 -23 -11z"/>
<path d="M4070 570 l-45 -7 40 -1 c22 0 49 3 60 8 23 10 9 10 -55 0z"/>
<path d="M8476 6747 c3 -10 9 -15 12 -12 3 3 0 11 -7 18 -10 9 -11 8 -5 -6z"/>
<path d="M8490 6685 c0 -21 -16 -64 -40 -111 -23 -42 -39 -82 -36 -88 3 -7 5
-6 5 2 1 8 17 40 36 71 23 37 38 75 42 109 3 29 3 52 -1 52 -3 0 -6 -16 -6
-35z"/>
<path d="M8515 6368 c11 -6 29 -18 40 -27 12 -9 8 -4 -7 12 -16 15 -34 27 -41
27 -6 0 -3 -6 8 -12z"/>
<path d="M8631 6205 c1 -19 18 -51 18 -35 0 8 -4 22 -9 30 -5 8 -9 11 -9 5z"/>
<path d="M8661 6094 c0 -11 3 -14 6 -6 3 7 2 16 -1 19 -3 4 -6 -2 -5 -13z"/>
<path d="M7928 5963 c12 -2 30 -2 40 0 9 3 -1 5 -23 4 -22 0 -30 -2 -17 -4z"/>
<path d="M7868 5953 c6 -2 18 -2 25 0 6 3 1 5 -13 5 -14 0 -19 -2 -12 -5z"/>
<path d="M8008 5953 c6 -2 18 -2 25 0 6 3 1 5 -13 5 -14 0 -19 -2 -12 -5z"/>
<path d="M7783 5935 c-18 -8 -33 -16 -33 -19 0 -3 15 1 33 8 17 7 39 16 47 19
13 5 13 5 0 6 -8 0 -30 -6 -47 -14z"/>
<path d="M7855 5714 c-145 -40 -187 -105 -211 -327 -37 -357 -44 -391 -93
-469 -21 -33 -53 -62 -103 -94 -40 -26 -117 -76 -171 -112 -92 -61 -99 -63
-120 -49 -18 11 -27 34 -41 98 -19 87 -72 230 -100 270 -20 29 -20 19 -1 -51
20 -74 20 -268 -1 -345 -35 -136 -128 -276 -227 -344 -23 -15 -78 -47 -122
-70 l-79 -42 -26 21 c-110 88 -262 168 -375 197 -87 22 -217 14 -273 -17 -23
-13 -42 -27 -42 -30 0 -4 -27 -26 -59 -49 -102 -71 -203 -193 -285 -346 l-38
-70 59 57 c182 177 348 286 451 296 104 10 307 -73 415 -169 87 -77 135 -205
123 -322 -19 -175 -129 -547 -174 -589 -39 -38 -154 -98 -185 -98 -15 0 -27
-4 -27 -9 0 -8 -26 -18 -80 -28 -14 -2 -34 -12 -45 -22 -11 -10 -36 -24 -55
-31 -66 -25 -255 -122 -325 -167 -79 -50 -198 -163 -222 -208 l-16 -30 24 21
c69 60 348 182 391 171 24 -7 89 11 103 28 5 7 35 18 65 25 105 23 295 90 384
135 74 37 92 42 110 33 67 -36 325 -233 348 -266 39 -56 68 -136 69 -190 l1
-47 13 30 c26 57 13 170 -31 257 -13 26 -72 103 -130 170 -143 165 -148 179
-141 338 10 204 70 365 172 458 63 58 109 70 196 51 64 -14 239 -7 350 15 42
8 124 33 183 55 350 132 596 407 596 667 0 76 -15 85 -24 15 -8 -59 -66 -179
-105 -219 -16 -15 -52 -56 -80 -90 -53 -63 -184 -159 -271 -197 -25 -11 -49
-25 -53 -32 -4 -7 -23 -12 -42 -11 -20 1 -43 -6 -53 -15 -10 -9 -58 -26 -107
-38 -129 -30 -304 -24 -424 16 -93 32 -137 63 -157 112 -17 38 -18 97 -4 124
11 20 79 59 104 59 18 0 76 32 76 42 0 4 17 16 38 27 37 19 43 21 62 21 6 0
10 6 10 13 1 25 294 222 460 308 47 24 103 62 126 84 49 50 114 175 114 221 0
44 26 58 94 49 59 -7 173 -53 241 -96 26 -16 49 -28 52 -26 2 3 -11 36 -29 73
-28 56 -50 83 -119 143 -48 42 -111 85 -146 101 l-63 29 5 78 c15 224 21 243
89 273 24 10 74 23 112 28 69 11 307 30 419 35 l60 2 -40 13 c-176 57 -490 86
-600 56z"/>
<path d="M8232 5385 c-33 -68 -29 -98 19 -148 l40 -42 -30 44 c-35 49 -38 81
-15 136 23 55 12 63 -14 10z"/>
<path d="M6805 5379 c-48 -14 -103 -66 -116 -109 -17 -55 -5 -97 47 -176 26
-38 55 -89 65 -114 10 -25 18 -37 19 -27 0 26 -25 82 -72 160 -28 46 -41 80
-42 107 -2 97 116 164 246 140 77 -15 126 -44 186 -108 l53 -57 -36 51 c-43
62 -90 100 -156 125 -52 20 -142 24 -194 8z"/>
<path d="M5808 4798 c-54 -14 -115 -72 -150 -142 -17 -33 -35 -64 -41 -67 -5
-4 -24 -3 -41 2 -54 16 -94 -8 -128 -74 -11 -22 -17 -41 -15 -44 3 -2 8 5 12
17 4 12 21 37 37 56 29 32 35 35 84 33 59 -3 76 7 95 54 36 90 86 136 170 157
69 17 118 0 190 -66 32 -30 64 -54 71 -54 7 0 1 8 -12 17 -14 10 -35 30 -48
44 -29 36 -118 79 -156 78 -17 -1 -47 -5 -68 -11z"/>
<path d="M7815 4479 c-42 -35 -87 -60 -155 -85 -146 -56 -192 -79 -235 -125
-36 -38 -37 -40 -10 -23 17 10 37 24 46 31 10 8 75 38 145 66 129 52 226 114
259 163 8 13 14 24 13 23 -2 0 -30 -23 -63 -50z"/>
<path d="M8551 4473 c-15 -36 -46 -68 -81 -82 -14 -5 -18 -10 -10 -10 41 -2
119 78 108 111 -2 6 -10 -2 -17 -19z"/>
<path d="M5920 3890 c-16 -5 -5 -6 30 -3 73 7 147 -23 197 -81 30 -35 33 -37
20 -11 -40 79 -158 124 -247 95z"/>
<path d="M7042 3453 c-67 -35 -61 -41 9 -8 103 48 192 28 243 -54 26 -40 53
-61 78 -61 7 0 2 6 -12 13 -13 7 -38 32 -54 56 -41 61 -78 81 -151 81 -47 0
-73 -6 -113 -27z"/>
<path d="M5220 3380 c6 -11 15 -20 20 -20 6 0 2 9 -7 20 -10 11 -19 20 -21 20
-1 0 2 -9 8 -20z"/>
<path d="M7042 2879 c13 -23 47 -64 75 -92 29 -28 56 -59 59 -70 3 -10 8 -16
11 -14 10 11 -29 68 -68 99 -23 18 -52 52 -66 76 -32 54 -42 55 -11 1z"/>
<path d="M5346 2765 c-9 -26 -7 -32 5 -12 6 10 9 21 6 23 -2 3 -7 -2 -11 -11z"/>
<path d="M5295 2683 c-35 -44 -36 -46 -6 -18 29 26 58 65 48 65 -1 0 -20 -21
-42 -47z"/>
<path d="M6620 2354 c-24 -13 -38 -24 -30 -24 16 0 80 36 80 45 0 3 -1 4 -2 4
-2 -1 -23 -12 -48 -25z"/>
<path d="M6378 1913 c7 -3 16 -2 19 1 4 3 -2 6 -13 5 -11 0 -14 -3 -6 -6z"/>
<path d="M6428 1903 c7 -3 16 -2 19 1 4 3 -2 6 -13 5 -11 0 -14 -3 -6 -6z"/>
<path d="M6615 1585 c-50 -116 -115 -172 -227 -196 -51 -11 -128 -44 -128 -54
0 -3 13 1 29 10 17 8 62 19 101 25 110 16 178 56 214 128 23 48 50 141 43 149
-3 2 -17 -26 -32 -62z"/>
<path d="M5270 1165 c0 -5 9 -23 20 -40 26 -39 26 -25 0 17 -11 18 -20 29 -20
23z"/>
<path d="M6759 1093 c-13 -16 -12 -17 4 -4 16 13 21 21 13 21 -2 0 -10 -8 -17
-17z"/>
<path d="M6400 978 c-30 -11 -82 -23 -115 -28 l-60 -7 51 -2 c55 -1 138 20
169 43 24 18 24 18 -45 -6z"/>
<path d="M5509 642 c23 -34 87 -72 118 -72 10 0 -2 10 -27 21 -25 11 -60 35
-79 52 l-34 32 22 -33z"/>
<path d="M1274 3857 c3 -22 22 -64 46 -99 39 -58 41 -65 34 -114 -3 -29 -2
-60 3 -69 7 -13 12 0 16 49 7 73 0 101 -37 149 -14 18 -34 53 -46 77 l-20 45
4 -38z"/>
<path d="M1550 3136 c0 -2 28 -14 62 -25 59 -20 118 -63 118 -86 0 -20 62 -86
101 -105 58 -30 69 -24 17 9 -48 30 -58 43 -101 121 -28 52 -67 75 -144 84
-29 4 -53 5 -53 2z"/>
<path d="M8462 3792 c-12 -26 -34 -68 -48 -93 -14 -26 -27 -66 -29 -90 -4 -42
-4 -42 4 -8 4 20 28 71 54 115 26 43 47 89 47 101 0 13 -1 23 -2 23 -2 0 -13
-22 -26 -48z"/>
<path d="M8105 3138 c-42 -15 -64 -36 -90 -88 -26 -51 -44 -69 -100 -99 l-40
-22 35 7 c55 9 108 49 131 98 27 58 46 74 116 96 58 19 58 19 18 19 -22 0 -53
-5 -70 -11z"/>
<path d="M1981 2379 c-1 -34 9 -65 37 -125 21 -43 47 -100 57 -127 10 -26 20
-46 22 -43 6 6 -54 154 -79 194 -11 19 -24 59 -28 90 l-7 57 -2 -46z"/>
<path d="M2215 2136 c4 -17 12 -44 19 -60 16 -37 89 -122 119 -138 13 -6 3 10
-24 40 -25 27 -62 81 -83 119 -24 43 -35 57 -31 39z"/>
<path d="M2143 1965 c9 -16 28 -43 42 -60 17 -19 13 -10 -10 25 -44 65 -53 76
-32 35z"/>
<path d="M2560 1556 c0 -2 8 -10 18 -17 15 -13 16 -12 3 4 -13 16 -21 21 -21
13z"/>
<path d="M2600 1513 c0 -5 10 -18 23 -29 l22 -19 -20 25 c-11 14 -21 27 -22
29 -2 2 -3 0 -3 -6z"/>
<path d="M7735 2433 c22 -45 19 -103 -9 -175 -40 -106 -40 -104 -29 -93 6 6
22 40 37 77 33 84 35 165 6 199 l-21 24 16 -32z"/>
<path d="M7480 2061 c0 -10 -20 -46 -45 -78 -43 -57 -65 -101 -65 -126 0 -7
11 7 25 31 13 23 38 62 54 85 28 39 52 107 37 107 -3 0 -6 -9 -6 -19z"/>
<path d="M7274 1548 l-19 -23 23 19 c12 11 22 21 22 23 0 8 -8 2 -26 -19z"/>
</g>
</svg>
