<?xml version="1.0" standalone="no"?>
<!DOCTYPE svg PUBLIC "-//W3C//DTD SVG 20010904//EN"
 "http://www.w3.org/TR/2001/REC-SVG-20010904/DTD/svg10.dtd">
<svg version="1.0" xmlns="http://www.w3.org/2000/svg"
 width="390.000000pt" height="428.000000pt" viewBox="0 0 390.000000 428.000000"
 preserveAspectRatio="xMidYMid meet">

<g transform="translate(0.000000,428.000000) scale(0.100000,-0.100000)"
fill="#000000" stroke="none">
<path d="M1495 4130 c-38 -11 -90 -20 -116 -20 -60 0 -126 -34 -214 -111 -38
-33 -114 -89 -168 -125 -54 -35 -120 -87 -148 -114 -47 -47 -99 -136 -99 -171
0 -8 -14 -28 -31 -45 -37 -35 -59 -76 -88 -166 -12 -37 -38 -87 -57 -113 -69
-90 -94 -186 -75 -290 11 -56 10 -60 -17 -93 -59 -74 -71 -97 -96 -175 -37
-121 -49 -229 -43 -391 4 -111 10 -159 31 -228 l26 -88 -40 -61 c-67 -104 -72
-146 -40 -338 24 -142 84 -329 131 -407 43 -71 123 -145 193 -178 l53 -25 6
-60 c11 -126 146 -315 305 -428 34 -25 70 -59 78 -76 57 -109 237 -228 384
-252 25 -4 58 -18 73 -31 29 -24 52 -29 117 -25 82 6 168 97 185 196 4 22 18
62 33 90 28 55 34 136 13 209 -8 32 -8 43 3 55 23 26 28 66 13 102 -11 28 -12
40 -1 69 17 48 17 128 -2 240 -17 104 -14 137 20 254 l23 79 21 -69 c42 -137
43 -150 25 -282 -15 -107 -15 -131 -3 -185 14 -65 14 -76 4 -145 -5 -33 -2
-47 11 -62 14 -15 15 -25 6 -57 -19 -68 -14 -155 12 -204 13 -24 27 -62 31
-83 13 -70 37 -116 83 -155 73 -65 178 -76 235 -25 10 10 51 26 91 36 153 38
296 136 356 244 13 23 33 46 45 52 46 21 132 101 202 189 96 119 127 180 132
261 l4 63 52 23 c101 46 173 124 231 249 82 180 130 490 91 597 -7 20 -27 57
-45 84 -37 53 -37 52 -2 181 18 65 22 108 22 230 0 244 -39 399 -126 505 -43
52 -45 57 -38 95 22 112 -6 225 -77 315 -17 22 -41 70 -54 108 -31 90 -41 108
-87 159 -22 24 -39 50 -39 58 0 31 -50 113 -96 160 -27 26 -91 76 -143 111
-53 34 -132 95 -176 133 -97 86 -128 101 -219 112 -39 4 -100 15 -136 23 -128
31 -224 16 -293 -44 -60 -53 -75 -101 -59 -188 30 -164 34 -202 29 -282 -3
-47 -11 -100 -18 -119 -15 -42 -6 -214 16 -324 15 -72 15 -80 0 -122 -22 -56
-14 -101 25 -150 17 -21 30 -41 30 -46 0 -4 -12 -17 -27 -29 -46 -36 -52 -57
-53 -181 0 -104 2 -120 26 -167 l26 -52 -21 -45 c-70 -149 -101 -384 -67 -509
14 -51 16 -72 7 -98 -5 -18 -13 -58 -17 -88 -10 -80 -20 -91 -28 -29 -4 30
-14 80 -23 112 -13 47 -14 63 -3 85 48 106 19 351 -61 519 l-30 63 23 31 c21
28 23 43 26 169 l3 138 -35 36 c-20 19 -36 39 -36 43 0 4 14 28 30 52 34 50
39 100 15 157 -13 31 -13 44 1 107 24 117 29 281 10 353 -21 81 -21 246 0 328
23 90 15 166 -22 213 -47 59 -104 83 -194 82 -41 0 -106 -9 -145 -19z m246
-57 c16 -10 39 -37 50 -61 l21 -43 -21 -77 c-12 -43 -21 -90 -21 -105 0 -32
-4 -33 -33 -6 -46 43 -56 39 -23 -10 63 -93 95 -398 59 -564 -6 -32 -2 -31
-103 -3 -58 16 -58 16 24 -41 29 -21 46 -40 46 -53 0 -12 9 -38 20 -60 27 -53
26 -62 -15 -121 -19 -28 -35 -62 -35 -75 0 -12 18 -44 41 -70 l41 -47 -4 -108
c-2 -67 -8 -113 -15 -120 -10 -10 -30 -6 -95 14 -46 15 -89 31 -95 35 -7 4
-22 44 -33 88 -11 43 -36 104 -55 136 -19 31 -35 65 -35 76 0 11 11 45 25 76
40 91 47 134 28 187 -24 65 -9 106 72 199 36 41 65 79 65 84 0 20 -166 -144
-185 -182 l-19 -41 -51 5 c-35 3 -44 2 -30 -5 34 -16 88 -78 87 -103 0 -13
-16 -60 -36 -105 -42 -94 -45 -143 -14 -193 12 -19 34 -57 49 -84 26 -47 26
-50 12 -85 -18 -41 -34 -216 -23 -245 5 -15 8 -10 13 21 5 28 19 54 42 79 33
34 38 36 84 32 38 -4 63 -15 110 -49 53 -39 64 -53 91 -116 42 -101 73 -235
74 -325 1 -71 -10 -112 -22 -78 -7 21 -87 97 -156 148 -58 43 -58 44 -54 87
l5 43 -35 -24 c-21 -14 -49 -24 -71 -24 -44 0 -131 39 -157 71 -11 13 -26 25
-34 27 -24 4 -125 116 -148 164 -35 72 -30 132 23 254 40 91 45 111 45 176 0
54 -7 92 -26 143 -49 132 -46 163 26 239 47 50 76 103 114 208 14 38 28 54 73
84 40 27 60 48 75 81 26 60 58 74 98 44 32 -23 42 -15 13 12 -26 22 -68 30
-92 17 -12 -6 -32 -28 -45 -48 -20 -32 -110 -92 -138 -92 -15 0 -59 103 -54
125 3 12 22 48 41 81 46 75 61 125 47 150 -9 16 -11 14 -10 -14 1 -23 -11 -49
-38 -87 -57 -81 -84 -128 -84 -148 0 -10 12 -43 26 -74 46 -97 24 -191 -67
-280 -27 -26 -59 -62 -70 -80 l-20 -32 -50 19 c-27 11 -62 20 -77 19 l-27 -1
27 -8 c14 -4 47 -22 71 -39 41 -28 47 -37 52 -79 4 -26 18 -76 32 -112 39 -99
35 -161 -16 -288 -51 -127 -55 -206 -16 -287 13 -27 23 -50 22 -52 -7 -7 -186
94 -214 120 -42 39 -44 77 -5 107 l27 22 -35 -7 c-39 -8 -87 -30 -111 -51 -14
-13 -22 -10 -65 19 -90 62 -160 244 -122 317 9 16 29 29 58 37 50 15 60 8 60
-42 0 -32 41 -128 59 -139 5 -4 3 10 -6 31 -11 24 -16 64 -16 111 1 62 5 79
27 110 30 44 31 56 10 107 -19 47 -6 112 36 179 31 48 67 71 160 101 52 17
135 64 127 72 -2 2 -24 -6 -48 -17 -24 -11 -60 -20 -80 -20 -20 0 -58 -7 -84
-15 -27 -8 -50 -13 -51 -12 -1 1 -4 27 -6 57 -3 54 -2 55 32 71 19 10 61 25
93 34 66 19 127 67 148 117 11 26 10 41 -6 102 -10 39 -19 76 -22 81 -4 12
148 145 206 182 44 28 106 30 142 5 27 -18 108 -113 128 -150 15 -29 14 -64
-4 -90 -12 -16 -12 -20 -3 -17 23 9 40 47 40 87 -1 28 -12 56 -46 106 -49 72
-49 76 9 106 41 21 129 21 166 -1z m566 -4 c57 -18 60 -33 21 -92 -72 -106
-77 -146 -26 -193 18 -16 25 -20 16 -9 -24 29 -31 70 -17 97 28 54 106 140
145 158 75 37 104 27 244 -90 99 -83 95 -71 70 -185 -7 -35 -10 -74 -6 -90 12
-46 77 -101 143 -121 134 -38 128 -34 131 -89 3 -71 -2 -76 -68 -59 -30 8 -68
14 -85 14 -17 0 -49 9 -70 20 l-40 20 32 -30 c18 -16 52 -34 75 -40 92 -23
128 -42 162 -83 68 -84 76 -125 51 -244 -5 -24 -2 -38 17 -63 20 -28 23 -43
23 -118 -1 -51 -6 -97 -14 -110 -7 -13 -10 -26 -7 -29 9 -10 56 97 63 143 l6
46 36 -7 c61 -11 71 -16 77 -41 17 -66 -25 -209 -78 -270 -46 -52 -59 -56
-104 -34 -55 29 -73 26 -43 -6 24 -25 24 -26 5 -40 -11 -8 -26 -14 -33 -14 -7
0 -13 -3 -13 -8 0 -19 -232 -152 -265 -152 -3 0 4 18 15 39 50 98 45 181 -18
331 -45 107 -47 172 -8 274 14 37 26 83 26 100 0 39 24 64 95 100 60 31 37 34
-42 6 -54 -19 -58 -19 -66 -2 -6 9 -34 40 -63 67 -96 91 -128 206 -84 304 29
64 26 101 -15 157 -19 27 -42 59 -51 72 -9 12 -22 39 -30 60 -12 33 -13 34
-14 10 0 -33 15 -68 58 -134 41 -64 43 -97 8 -157 l-28 -47 -46 26 c-42 24
-59 39 -117 107 -27 30 -125 12 -125 -24 0 -5 13 0 29 12 41 30 68 18 95 -43
17 -39 35 -59 76 -87 49 -32 57 -43 80 -106 37 -97 52 -124 100 -170 49 -47
70 -84 70 -121 0 -15 -14 -70 -31 -123 -44 -136 -43 -182 11 -306 77 -179 68
-264 -42 -372 -160 -156 -265 -198 -337 -137 -34 28 -36 28 -21 -11 14 -38 1
-57 -84 -120 -41 -30 -89 -72 -108 -94 -19 -23 -38 -38 -41 -34 -13 12 -7 168
9 233 15 65 59 202 74 230 5 8 40 37 78 63 64 43 75 48 119 45 45 -3 50 -6 81
-52 17 -26 32 -60 33 -75 0 -23 1 -24 8 -6 12 30 3 172 -16 237 l-16 57 47 79
c54 93 58 126 20 209 -54 120 -55 128 -31 165 13 18 38 43 57 57 l35 24 -51
-6 -51 -6 -20 43 c-14 28 -49 66 -102 110 -45 36 -81 63 -81 58 0 -5 25 -37
56 -73 31 -35 65 -83 76 -107 18 -41 18 -44 2 -97 l-18 -55 32 -83 c40 -104
40 -136 1 -212 -17 -33 -38 -91 -48 -129 -9 -38 -24 -73 -32 -77 -8 -5 -52
-22 -99 -38 -112 -40 -114 -38 -118 111 l-4 111 36 33 c63 57 66 97 13 160
-34 41 -39 64 -20 99 8 17 19 46 22 65 5 29 15 40 64 69 31 19 56 36 53 38 -2
2 -32 -3 -66 -12 -35 -9 -66 -13 -70 -8 -12 12 -30 133 -30 198 0 32 5 87 10
124 6 36 15 92 20 125 10 62 38 126 73 165 21 22 21 23 2 13 -11 -5 -31 -22
-44 -36 -14 -14 -28 -26 -31 -26 -4 0 -10 19 -14 43 -3 23 -13 71 -22 107 -15
59 -15 68 -1 102 32 76 115 100 224 67z m-1222 -332 c10 -103 -29 -145 -155
-165 -36 -6 -75 -14 -87 -18 -31 -9 -30 17 2 82 29 59 70 100 156 158 74 50
74 50 84 -57z m1884 -11 c48 -44 91 -115 91 -149 0 -24 -3 -28 -17 -22 -10 4
-52 13 -93 21 -122 23 -155 59 -145 161 9 98 9 98 73 57 32 -20 72 -50 91 -68z
m-2151 -308 c-4 -90 -9 -112 -38 -173 -24 -51 -32 -82 -31 -115 1 -25 2 -56 2
-69 1 -39 -49 -80 -117 -96 -32 -7 -61 -11 -64 -8 -3 2 -5 39 -4 81 0 83 6 98
73 201 20 32 48 92 61 132 17 54 33 84 60 112 58 58 63 52 58 -65z m2310 69
c20 -21 40 -60 57 -111 14 -44 39 -98 55 -120 69 -96 99 -188 85 -262 l-6 -36
-47 7 c-98 15 -136 57 -126 141 5 40 0 63 -26 129 -18 44 -37 94 -42 110 -10
32 -1 175 11 175 4 0 21 -15 39 -33z m-2569 -703 c1 -43 22 -100 60 -161 41
-67 41 -105 -1 -135 -18 -13 -45 -30 -60 -38 -15 -7 -38 -24 -50 -38 -21 -23
-21 -25 -3 -17 110 45 259 81 297 72 13 -4 46 -24 74 -45 48 -36 130 -72 197
-86 25 -6 39 -26 17 -26 -12 0 -72 -81 -65 -88 2 -3 11 0 18 7 20 16 125 51
154 51 13 0 47 -18 75 -41 29 -22 78 -54 109 -69 57 -30 69 -44 69 -85 0 -17
-14 -32 -49 -54 -74 -48 -141 -124 -141 -160 0 -35 9 -61 21 -61 5 0 9 8 9 18
0 22 33 54 122 116 38 26 88 70 112 98 55 63 70 61 155 -17 123 -115 159 -207
168 -436 8 -213 -15 -290 -85 -274 -16 3 -69 30 -118 60 -65 40 -99 55 -126
55 -20 0 -40 -4 -43 -10 -3 -5 0 -7 8 -4 25 9 79 -21 150 -84 72 -64 120 -92
159 -92 22 0 23 -4 25 -74 1 -40 7 -93 12 -117 13 -56 14 -140 2 -172 l-10
-25 -63 25 c-35 14 -68 29 -73 34 -6 4 -25 11 -43 14 -44 7 -189 61 -219 80
-12 9 -23 12 -23 7 0 -16 116 -94 237 -159 65 -35 131 -78 146 -94 26 -28 27
-33 14 -52 -8 -12 -22 -21 -31 -19 -9 2 -16 -4 -16 -13 0 -33 -67 -48 -180
-41 -58 4 -121 9 -140 12 l-35 5 45 -25 c58 -32 163 -66 205 -66 39 0 47 -10
55 -65 l6 -40 23 72 c18 61 26 74 47 79 35 9 44 -7 44 -79 0 -47 -5 -65 -25
-91 -14 -18 -25 -46 -25 -62 0 -49 -20 -103 -49 -136 -22 -24 -37 -32 -77 -35
-70 -7 -83 10 -58 75 22 59 25 146 4 166 -11 11 -43 17 -110 20 -52 2 -110 8
-129 12 -25 5 -32 4 -27 -5 16 -26 93 -55 161 -60 l70 -6 3 -45 c2 -24 1 -60
-3 -79 l-6 -34 -54 7 c-114 13 -245 87 -318 178 -30 37 -30 38 -12 58 18 20
18 24 -9 138 -16 64 -29 124 -30 132 -1 12 27 16 164 23 91 4 185 6 210 3 l45
-4 -27 23 c-36 31 -108 45 -228 45 -182 0 -248 30 -327 149 -24 34 -43 66 -43
70 0 4 19 28 41 52 75 80 107 150 50 110 -57 -41 -124 -19 -172 57 -16 25 -29
50 -29 54 0 5 14 15 32 22 l31 14 -30 6 c-33 8 -78 51 -112 108 -28 46 -115
122 -164 143 -21 9 -66 15 -107 15 -66 0 -71 1 -80 26 -19 49 -12 136 15 190
27 52 71 111 78 104 3 -3 18 -30 36 -60 43 -76 40 -35 -5 65 -80 177 -87 213
-88 395 0 225 26 344 96 441 28 39 32 41 39 24 4 -11 8 -34 8 -51z m2876 -86
c34 -107 49 -246 42 -397 -5 -131 -12 -157 -75 -306 -16 -38 -32 -88 -36 -110
l-7 -40 33 58 c18 31 37 56 43 54 5 -2 26 -30 45 -62 28 -48 35 -71 38 -124 2
-37 -1 -79 -7 -95 -10 -25 -15 -28 -44 -22 -143 26 -191 15 -222 -51 -9 -21
-26 -57 -37 -80 -18 -39 -71 -94 -112 -118 -11 -6 -19 -27 -22 -55 -9 -73 -22
-97 -68 -120 -53 -25 -63 -25 -105 1 -28 17 -33 18 -27 4 3 -9 6 -21 6 -26 0
-5 23 -34 50 -64 64 -71 65 -95 2 -168 -93 -107 -113 -116 -310 -126 -155 -8
-213 -21 -239 -52 -9 -12 19 -14 190 -17 111 -2 206 -7 210 -11 4 -4 -1 -30
-12 -58 -29 -73 -48 -208 -32 -227 17 -20 5 -40 -61 -102 -79 -75 -188 -124
-274 -124 -50 0 -57 13 -52 96 l3 49 71 6 c62 6 154 39 154 55 0 4 -55 3 -122
-1 -106 -6 -125 -9 -140 -27 -25 -28 -23 -98 4 -159 19 -47 20 -51 5 -67 -23
-22 -81 -20 -114 4 -47 36 -65 69 -70 130 -3 40 -10 64 -23 74 -27 23 -40 55
-40 99 0 122 71 121 99 -2 15 -67 31 -83 31 -32 0 53 15 75 51 75 36 0 166 42
217 71 l37 20 -40 -5 c-141 -18 -235 -19 -279 -2 -24 9 -50 24 -58 33 -12 15
-11 15 9 5 41 -22 38 -12 -4 14 -24 14 -43 29 -43 33 0 19 66 66 197 139 137
78 213 129 213 145 0 4 -10 1 -22 -7 -24 -14 -139 -57 -263 -96 -38 -13 -74
-28 -80 -35 -14 -17 -56 -38 -62 -31 -15 15 -18 103 -7 207 7 62 10 131 7 151
-5 35 -4 37 24 36 41 -1 116 42 187 107 60 55 115 83 137 69 8 -4 9 -3 5 4
-15 25 -81 13 -142 -25 -208 -128 -235 -116 -242 108 -5 152 11 282 43 355 29
66 136 188 188 215 l38 20 52 -53 c29 -30 84 -76 122 -103 93 -65 115 -85 115
-107 0 -27 19 -22 30 8 8 19 6 34 -6 60 -17 36 -105 121 -155 151 -21 12 -29
25 -29 44 0 34 18 53 84 85 28 15 73 44 99 66 44 37 52 40 90 34 23 -4 66 -17
95 -31 28 -13 52 -20 52 -14 0 5 -19 30 -41 54 -28 30 -36 45 -26 45 44 0 180
54 228 90 41 30 63 40 92 40 53 0 172 -28 235 -56 50 -22 52 -22 41 -3 -5 11
-41 40 -79 64 -37 24 -71 53 -75 65 -5 15 4 42 28 89 39 74 67 159 67 205 l1
31 35 -39 c22 -26 43 -67 59 -118z m-2909 -1094 c54 -8 174 -129 174 -175 0
-12 -13 -24 -37 -34 -40 -17 -73 -43 -73 -57 0 -5 10 -2 22 6 27 19 103 21
137 3 37 -18 114 -154 115 -201 1 -57 -32 -80 -103 -73 -114 12 -211 87 -271
211 -33 68 -76 211 -86 285 l-6 49 48 -5 c27 -2 63 -6 80 -9z m2974 -6 c0 -35
-61 -250 -88 -310 -59 -129 -214 -234 -314 -213 -71 16 -77 75 -18 166 21 33
42 69 45 79 12 38 130 54 174 24 23 -16 23 -16 11 6 -6 12 -31 30 -55 41 -23
10 -45 26 -48 34 -4 8 9 36 27 62 18 26 41 63 50 81 22 43 45 51 138 49 66 -2
78 -5 78 -19z m-2596 -615 c11 -45 72 -127 115 -153 l39 -25 4 -86 c3 -71 9
-93 32 -133 15 -26 25 -50 22 -53 -31 -31 -281 226 -321 329 -9 25 -15 64 -13
89 3 42 5 44 38 50 69 12 77 11 84 -18z m2209 10 c19 -11 6 -102 -25 -163 -52
-104 -274 -320 -301 -293 -4 3 5 20 18 37 32 43 48 107 40 169 l-7 52 46 32
c50 35 99 97 118 150 12 33 13 33 58 27 25 -4 48 -8 53 -11z"/>
<path d="M1361 4014 c-19 -8 -40 -22 -47 -32 -24 -30 -15 -31 15 -1 16 16 36
29 45 29 8 0 18 5 21 10 8 12 7 12 -34 -6z"/>
<path d="M1689 3977 c13 -15 27 -44 31 -64 l8 -38 1 33 c1 41 -12 68 -42 83
-21 11 -21 11 2 -14z"/>
<path d="M1471 3850 c14 -31 19 -36 19 -24 0 6 -7 19 -16 30 -14 18 -14 18 -3
-6z"/>
<path d="M1213 3833 c9 -2 25 -2 35 0 9 3 1 5 -18 5 -19 0 -27 -2 -17 -5z"/>
<path d="M1572 3498 c-12 -13 -43 -30 -69 -38 -27 -9 -52 -25 -61 -40 l-16
-25 30 26 c16 15 46 30 66 33 23 4 42 15 49 27 5 11 20 24 32 29 14 5 16 9 7
9 -9 1 -26 -9 -38 -21z"/>
<path d="M1648 3513 c7 -3 16 -2 19 1 4 3 -2 6 -13 5 -11 0 -14 -3 -6 -6z"/>
<path d="M1204 3418 l-19 -23 23 19 c12 11 22 21 22 23 0 8 -8 2 -26 -19z"/>
<path d="M1160 3390 c-9 -6 -10 -10 -3 -10 6 0 15 5 18 10 8 12 4 12 -15 0z"/>
<path d="M898 3134 c11 -22 41 -50 45 -43 1 2 -11 18 -27 34 -20 20 -25 23
-18 9z"/>
<path d="M961 3086 c2 -2 20 -6 39 -10 25 -4 31 -3 20 4 -14 9 -69 15 -59 6z"/>
<path d="M1051 3005 c0 -5 8 -26 19 -45 11 -19 19 -30 19 -25 0 6 -8 26 -19
45 -11 19 -19 31 -19 25z"/>
<path d="M921 2959 c20 -20 21 -28 14 -113 -6 -81 -4 -98 17 -151 l23 -60 2
55 c1 30 8 85 14 122 14 77 4 115 -39 148 -34 27 -58 26 -31 -1z"/>
<path d="M1601 2854 c-1 -22 11 -48 40 -87 22 -32 42 -57 45 -57 7 0 -3 16
-42 70 -18 25 -34 59 -37 75 l-4 30 -2 -31z"/>
<path d="M1341 2679 c0 -14 -14 -45 -30 -70 -16 -24 -32 -57 -35 -74 -6 -29
-6 -30 5 -5 7 14 25 46 41 72 20 32 28 56 25 75 -4 27 -4 28 -6 2z"/>
<path d="M2250 4015 c-14 -8 -33 -14 -42 -15 -20 0 -58 -34 -58 -51 0 -7 9 0
20 13 11 14 30 28 42 31 44 10 103 36 83 36 -11 0 -31 -6 -45 -14z"/>
<path d="M2550 3996 c0 -2 7 -7 16 -10 8 -3 12 -2 9 4 -6 10 -25 14 -25 6z"/>
<path d="M2649 3849 c18 -11 41 -18 50 -16 12 4 11 5 -4 6 -11 1 -29 8 -39 16
-11 8 -25 15 -30 15 -6 0 4 -9 23 -21z"/>
<path d="M2401 3829 c-1 -18 12 -34 54 -69 26 -21 25 -19 -6 15 -20 22 -39 47
-42 55 -5 13 -6 13 -6 -1z"/>
<path d="M2280 3539 c13 -6 28 -15 32 -22 6 -9 8 -9 8 0 0 14 -32 33 -52 32
-7 0 -2 -5 12 -10z"/>
<path d="M2218 3533 c7 -3 16 -2 19 1 4 3 -2 6 -13 5 -11 0 -14 -3 -6 -6z"/>
<path d="M2415 3410 c10 -11 20 -20 23 -20 3 0 -3 9 -13 20 -10 11 -20 20 -23
20 -3 0 3 -9 13 -20z"/>
<path d="M2987 3117 l-17 -32 20 24 c17 20 26 41 18 41 -2 0 -11 -15 -21 -33z"/>
<path d="M2240 3044 c0 -21 4 -45 9 -53 5 -8 7 5 4 35 -7 61 -13 70 -13 18z"/>
<path d="M2893 3054 l-28 -25 33 22 c17 13 32 24 32 26 0 8 -11 1 -37 -23z"/>
<path d="M2949 2965 c-39 -21 -53 -64 -44 -133 4 -31 8 -87 9 -124 1 -79 14
-76 41 8 16 50 16 64 5 131 -12 71 -12 75 9 104 24 32 19 35 -20 14z"/>
<path d="M2280 2916 c0 -2 8 -10 18 -17 15 -13 16 -12 3 4 -13 16 -21 21 -21
13z"/>
<path d="M2312 2846 c-2 -31 -10 -47 -39 -75 -56 -54 -74 -81 -28 -42 56 48
77 83 72 123 -4 32 -4 32 -5 -6z"/>
<path d="M3150 2680 c-8 -5 -10 -10 -5 -10 6 0 17 5 25 10 8 5 11 10 5 10 -5
0 -17 -5 -25 -10z"/>
<path d="M2561 2654 c0 -11 3 -14 6 -6 3 7 2 16 -1 19 -3 4 -6 -2 -5 -13z"/>
<path d="M2570 2625 c0 -5 9 -23 20 -40 22 -33 26 -85 10 -116 -6 -10 -8 -19
-5 -19 3 0 12 15 20 34 10 24 12 42 4 67 -9 34 -48 93 -49 74z"/>
<path d="M966 3685 c-21 -25 -31 -42 -22 -39 13 5 72 84 62 84 -2 0 -20 -20
-40 -45z"/>
<path d="M2897 3691 c15 -22 34 -42 41 -46 8 -3 -1 13 -18 35 -43 54 -58 61
-23 11z"/>
<path d="M3220 3081 c0 -10 29 -36 34 -30 1 2 -6 12 -16 22 -10 9 -18 13 -18
8z"/>
<path d="M795 2353 c11 -3 31 -15 45 -26 l25 -22 -24 28 c-14 15 -34 26 -45
26 -20 -1 -20 -1 -1 -6z"/>
<path d="M565 2265 c-34 -7 -49 -13 -35 -14 232 -19 234 -20 245 -111 l7 -55
-37 -19 c-52 -28 -128 -116 -100 -116 3 0 17 7 30 16 14 9 41 20 62 24 41 10
63 -1 63 -31 0 -26 56 -86 100 -109 21 -11 80 -47 132 -82 52 -35 109 -71 126
-80 41 -22 44 -67 7 -96 -129 -102 -398 -7 -484 171 -27 56 -31 59 -31 31 0
-70 30 -136 89 -194 65 -63 125 -96 206 -113 47 -10 66 -9 126 7 38 10 81 15
94 12 35 -9 71 -79 85 -164 13 -82 5 -119 -34 -162 -54 -57 -76 -101 -75 -149
l1 -46 8 38 c8 44 40 80 116 132 l54 37 62 -25 c35 -15 83 -32 108 -38 25 -7
49 -16 55 -21 5 -4 21 -8 36 -8 15 0 57 -15 93 -34 36 -19 66 -33 66 -31 0 2
-12 16 -27 31 -44 44 -123 89 -225 129 -55 22 -108 50 -122 64 -29 32 -76 178
-76 238 0 86 55 151 158 187 61 22 92 12 173 -56 39 -33 73 -58 75 -55 8 8
-87 127 -122 154 -61 46 -151 36 -257 -30 -47 -29 -49 -30 -82 -14 -104 49
-152 140 -143 266 l5 66 -18 -40 c-10 -22 -21 -59 -25 -82 -3 -24 -10 -43 -14
-43 -13 0 -154 99 -162 114 -4 7 -14 57 -24 112 -20 122 -44 181 -79 194 -35
13 -135 11 -210 -5z"/>
<path d="M603 2120 c-10 -10 -30 -23 -43 -29 -15 -6 -19 -10 -9 -10 9 -1 33
13 54 29 21 17 33 30 27 30 -6 0 -19 -9 -29 -20z"/>
<path d="M1115 2110 c-22 -11 -31 -17 -20 -14 11 4 37 9 57 12 33 4 39 1 58
-29 18 -28 20 -30 15 -9 -7 27 -40 60 -59 60 -6 0 -29 -9 -51 -20z"/>
<path d="M1577 1901 c58 -7 82 -25 100 -74 7 -18 12 -24 12 -14 2 30 -28 77
-55 87 -14 6 -44 9 -67 9 -41 -2 -41 -2 10 -8z"/>
<path d="M1690 1784 c0 -6 7 -19 16 -30 14 -18 14 -18 3 6 -14 31 -19 36 -19
24z"/>
<path d="M480 1776 c0 -2 8 -10 18 -17 15 -13 16 -12 3 4 -13 16 -21 21 -21
13z"/>
<path d="M810 1751 c14 -12 50 -28 80 -37 30 -9 67 -24 82 -35 19 -13 26 -15
22 -5 -5 14 -91 56 -114 56 -6 0 -30 9 -53 21 l-42 20 25 -20z"/>
<path d="M1048 1354 c-16 -8 -28 -17 -28 -20 0 -2 10 1 22 7 12 6 33 15 47 20
20 6 22 7 6 8 -11 0 -32 -7 -47 -15z"/>
<path d="M1075 1144 c-18 -16 -22 -22 -9 -15 18 9 53 42 43 41 -2 -1 -17 -12
-34 -26z"/>
<path d="M1290 586 c0 -21 51 -46 92 -45 30 1 29 2 -12 10 -26 5 -53 18 -62
30 -14 17 -18 18 -18 5z"/>
<path d="M1320 386 c0 -2 7 -7 16 -10 8 -3 12 -2 9 4 -6 10 -25 14 -25 6z"/>
<path d="M3130 2276 c-50 -18 -66 -53 -79 -172 -7 -58 -17 -116 -23 -129 -13
-29 -144 -119 -163 -111 -7 2 -18 26 -24 53 -7 26 -18 59 -25 72 -12 21 -13
14 -8 -51 4 -61 1 -83 -18 -126 -24 -55 -70 -103 -125 -129 -32 -15 -34 -15
-68 11 -47 36 -127 66 -176 66 -57 0 -147 -74 -202 -165 l-23 -40 64 54 c36
30 80 60 99 68 46 20 107 10 165 -27 60 -38 86 -82 86 -143 0 -44 -25 -157
-49 -220 -11 -27 -64 -67 -90 -67 -26 0 -199 -90 -250 -130 -62 -49 -66 -67
-8 -35 23 13 67 31 97 39 106 28 166 48 222 73 l58 26 75 -57 c64 -48 76 -63
89 -104 l15 -47 0 37 c1 51 -13 82 -63 142 -24 28 -49 62 -56 75 -28 53 20
221 74 256 19 13 37 15 73 10 195 -26 445 135 442 285 -1 32 -1 33 -8 10 -37
-120 -186 -227 -332 -238 -76 -5 -163 18 -179 48 -20 37 -12 60 28 77 20 8 68
37 105 65 37 27 96 64 131 83 75 42 103 70 121 122 12 34 17 38 45 35 17 -1
49 -11 71 -22 75 -39 37 33 -48 89 -46 31 -47 32 -44 79 1 26 4 54 7 64 7 24
50 36 159 44 53 4 94 9 91 11 -5 6 -176 33 -201 32 -11 0 -36 -6 -55 -13z"/>
<path d="M2696 2129 c-31 -25 -33 -50 -5 -95 29 -48 33 -42 6 12 l-22 46 29
25 c24 21 37 24 69 20 21 -3 49 -14 61 -24 12 -10 9 -6 -6 10 -36 34 -93 37
-132 6z"/>
<path d="M3287 2143 c-13 -12 -7 -40 11 -54 15 -13 16 -12 3 3 -7 10 -11 27
-8 38 5 21 4 24 -6 13z"/>
<path d="M2338 1913 c7 -3 16 -2 19 1 4 3 -2 6 -13 5 -11 0 -14 -3 -6 -6z"/>
<path d="M2284 1888 l-19 -23 23 19 c21 18 27 26 19 26 -2 0 -12 -10 -23 -22z"/>
<path d="M3115 1780 c-3 -5 -32 -19 -65 -31 -32 -12 -67 -31 -77 -42 -10 -13
-12 -17 -3 -10 8 6 39 21 69 33 53 21 114 60 93 60 -6 0 -13 -4 -17 -10z"/>
<path d="M3415 1779 c-4 -6 -5 -12 -2 -15 2 -3 7 2 10 11 7 17 1 20 -8 4z"/>
<path d="M2878 1379 c13 -5 31 -17 40 -27 10 -11 13 -12 7 -2 -14 23 -37 40
-54 39 -10 0 -7 -4 7 -10z"/>
<path d="M2840 1115 c13 -14 26 -25 28 -25 3 0 -5 11 -18 25 -13 14 -26 25
-28 25 -3 0 5 -11 18 -25z"/>
<path d="M2635 612 c-15 -27 -32 -41 -65 -54 -25 -9 -37 -17 -27 -17 38 -2 89
32 104 67 19 47 12 49 -12 4z"/>
<path d="M2212 244 c10 -10 20 -16 22 -13 3 3 -5 11 -17 18 -21 13 -21 12 -5
-5z"/>
<path d="M510 1535 c0 -6 6 -20 14 -31 8 -11 16 -36 19 -55 l4 -34 1 35 c1 20
-6 47 -18 65 -11 17 -20 25 -20 20z"/>
<path d="M655 1236 c17 -7 36 -25 44 -39 8 -14 20 -28 27 -31 14 -5 -31 64
-49 76 -7 4 -21 8 -32 7 -15 0 -13 -3 10 -13z"/>
<path d="M3366 1478 l-18 -33 21 25 c18 22 26 40 18 40 -1 0 -11 -15 -21 -32z"/>
<path d="M3204 1215 c-24 -25 -39 -45 -34 -45 13 0 50 37 50 50 0 6 15 17 33
25 20 9 25 14 14 15 -11 0 -38 -20 -63 -45z"/>
<path d="M811 890 c14 -31 19 -36 19 -24 0 6 -7 19 -16 30 -14 18 -14 18 -3
-6z"/>
<path d="M890 838 c0 -8 10 -23 22 -34 l21 -19 -18 30 c-26 41 -25 40 -25 23z"/>
<path d="M2967 783 c-11 -13 -17 -26 -14 -29 2 -3 12 7 21 22 23 33 17 39 -7
7z"/>
</g>
</svg>
